<svg id="Layer_1" data-name="Layer 1" xmlns="http://www.w3.org/2000/svg" viewBox="0 0 469.25 466.67"><defs><style>.cls-1{fill:#1d1d1b;}</style></defs><path class="cls-1" d="M187.32,262.46a133.48,133.48,0,0,1,44.35-102.41H102.05L37,272.72l65.05,112.67h130.1l15.77-27.32A109.5,109.5,0,0,1,187.32,262.46Z" transform="translate(-37 -39.33)"/><path class="cls-1" d="M231.74,161.33l14.66,25.4L259,208.46l9.87,17.09,6.55,11.35,6.11,10.58,4.62,8,2.58,4.47,3.7,6.42,2.82,4.88.61,1.05c0,.21.05.44.09.66l-.21.37-2,3.41-2.94,5.1L289,285l-3.69,6.39-4.64,8-4.86,8.42-8,13.86-9.21,16-11,19.09a108.31,108.31,0,0,1-59.21-94.31,132.78,132.78,0,0,1,43.42-101.11m.41-1.28h-.48a133.48,133.48,0,0,0-44.35,102.41,109.5,109.5,0,0,0,60.6,95.61l11.5-19.91,9.21-16,8-13.86,4.86-8.42,4.64-8,3.68-6.39,1.83-3.17,2.95-5.1,2-3.41.4-.7a8.47,8.47,0,0,1-.18-1.14l-.71-1.24-2.82-4.88-3.71-6.42L287,255l-4.62-8-6.11-10.58-6.55-11.35L259.81,208l-12.54-21.73-15.12-26.18Z" transform="translate(-37 -39.33)"/><path class="cls-1" d="M441.2,39.33H311.1l-62,107.4-3,5.27,14.06,24.36a102.34,102.34,0,0,1,53.62-16.47A125.63,125.63,0,0,1,440.34,264.67h.86L506.25,152Z" transform="translate(-37 -39.33)"/><path class="cls-1" d="M316.51,160.86A124.63,124.63,0,0,1,439.15,263.67H311.68l-.88-1.51-2.31-4-2.11-3.65-2.88-5L300.31,244,296,236.53l-6-10.34-6.82-11.81-9.63-16.68-12.12-21a101.42,101.42,0,0,1,52.29-15.8l2.76,0m0-1c-.93,0-1.85,0-2.78,0a102.34,102.34,0,0,0-53.62,16.47l12.61,21.84,9.63,16.68,6.82,11.81,6,10.34,4.3,7.46,3.2,5.53,2.87,5,2.11,3.65,2.31,4,1.17,2H440.34A125.65,125.65,0,0,0,316.51,159.86Z" transform="translate(-37 -39.33)"/><path class="cls-1" d="M413.27,280.66a107.74,107.74,0,0,1-31.42,82.9,132,132,0,0,1-134.46,32.1L311.1,506H441.2l65.05-112.67L442,282.08c0,.23,0,.45,0,.67,0-.22,0-.44,0-.67l-.82-1.42Z" transform="translate(-37 -39.33)"/><path class="cls-1" d="M412.33,281.66a107.16,107.16,0,0,1-31.19,81.19,131.15,131.15,0,0,1-133.08,32l-.86-1.49,16.53-28.63,11.64-20.17,9-15.62,8.07-14,5.23-9.06,4.21-7.29,3.85-6.67,2.86-4.95,2.07-3.58,1-1.73H412.33m.94-1H311.1l-1.29,2.23-2.07,3.58-2.86,4.95L301,298.09l-4.21,7.29-5.23,9.06-8.07,14-9,15.62L262.86,364.2l-16.81,29.13,1.34,2.33a132.19,132.19,0,0,0,134.46-32.1,107.74,107.74,0,0,0,31.42-82.9Z" transform="translate(-37 -39.33)"/></svg>