<?xml version="1.0" encoding="utf-8"?>
<!-- Generator: Adobe Illustrator 24.2.3, SVG Export Plug-In . SVG Version: 6.00 Build 0)  -->
<svg version="1.1" id="Layer_1" xmlns="http://www.w3.org/2000/svg" xmlns:xlink="http://www.w3.org/1999/xlink" x="0px" y="0px"
	 viewBox="0 0 566.9 566.9" style="enable-background:new 0 0 566.9 566.9;" xml:space="preserve">
<g>
	<path d="M229.4,94.1c0-14.1,8.2-20.4,18.8-20.4c6.7,0,12.2,2.8,15.5,8.1c3.2-5.3,8.7-8.1,15.5-8.1c10.6,0,18.8,6.3,18.8,20.4v25.6
		h-10.8V94.1c0-7.3-3.8-10.3-9.1-10.3c-5.2,0-9,3.1-9,10.3v25.6h-10.8V94.1c0-7.3-3.9-10.3-9.1-10.3c-5.3,0-9.1,3-9.1,10.3v25.6
		h-10.8V94.1z"/>
	<path d="M302.8,97.1c0-13.9,10-23.4,24.2-23.4c14.1,0,23.8,9.3,23.8,23.3v22.7h-9.9v-8.6c-2.7,6.5-8.8,8.5-15.9,8.5
		C314.2,119.7,302.8,112.1,302.8,97.1z M340,96.7c0-7.7-5.3-13.2-13.1-13.2c-7.9,0-13.2,5.5-13.2,13.2c0,7.7,5.3,13.2,13.2,13.2
		C334.8,109.9,340,104.4,340,96.7z"/>
	<path d="M359,55.3h10.8v39.2l17.8-19.6h13.8l-21,21.9l21.8,22.8h-14.1l-18.3-20.2v20.2H359V55.3z"/>
	<path d="M401.2,96.7c0-13.3,10-23,24.1-23c14.1,0,23.9,9.7,23.9,23v3.7h-36.7c1.5,6.4,6.4,9.7,12.8,9.7c4.8,0,8.3-1.3,10.6-4.2
		h11.5c-3.4,8.3-11.5,13.7-22.1,13.7C411.2,119.7,401.2,110,401.2,96.7z M437.8,92c-1.7-5.8-6.6-8.8-12.5-8.8
		c-6.1,0-10.8,3-12.5,8.8H437.8z"/>
	<path d="M454.1,93.7c0-13.5,8-19.9,19.7-19.9s19.6,6.4,19.6,20.1v0.3h-10.7v-0.5c0-7.3-3.6-9.9-8.9-9.9s-8.9,2.6-8.9,9.9v26h-10.8
		V93.7z"/>
	<path d="M494.8,105.6h10.9c0.1,2.9,2.7,4.9,8,4.9c5.5,0,7.9-2.2,7.9-4.9c0-3.4-4-3.8-8.8-4.4c-6.9-0.9-17-2-17-12.7
		c0-8.9,7-14.8,17.8-14.8c11,0,17.7,6,18,13.7h-10.7c-0.3-2.7-2.8-4.5-7.1-4.5c-4.7,0-7.1,2.2-7.1,4.8c0,3.4,4.1,3.9,8.9,4.5
		c6,0.8,17,1.9,17,12.8c0,8.8-7.3,14.7-18.8,14.7S495,113.8,494.8,105.6z"/>
	<polygon points="229.4,207.5 229.4,203.4 286.8,132.7 229.5,132.7 229.5,127.5 294.2,127.5 294.2,131.6 236.8,202.3 294.5,202.3 
		294.5,207.5 	"/>
	<path d="M331.5,207.5c-22.4,0-38.6-16.9-38.6-40.1s16.2-40.1,38.6-40.1s38.6,16.9,38.6,40.1S353.8,207.5,331.5,207.5z M331.5,132.2
		c-19.7,0-33.4,14.5-33.4,35.1s13.7,35.1,33.4,35.1s33.4-14.5,33.4-35.1S351.1,132.2,331.5,132.2z"/>
	<path d="M443.8,207.5v-40.9c0-21.4-11.4-34.2-30.4-34.2S383,145.1,383,166.5v40.9H378v-40.9c0-24.6,13.3-39.2,35.5-39.2
		c22.2,0,35.5,14.7,35.5,39.2v40.9H443.8z"/>
	<path d="M495.4,207.5c-22.4,0-38.6-16.9-38.6-40.1s16.2-40.1,38.6-40.1c22.3,0,38.5,16.9,38.5,40.1v1H462
		c0.4,20.2,14.1,34.2,33.4,34.2c13.6,0,24.8-7.1,30.2-19l0.2-0.4h5.4l-0.3,0.9C525.1,198.7,511.8,207.5,495.4,207.5z M528.5,163.4
		c-1.7-18.7-15-31.2-33.2-31.2c-18.3,0-31.6,12.5-33.3,31.2H528.5z"/>
	<path d="M93.1,136.7c-0.4-16.5,6.7-31.4,18-41.6H58.5l-26.4,45.7l26.4,45.7H108h3.3l6.4-11.1C103.4,168.4,93.5,153.8,93.1,136.7z"
		/>
	<g>
		<path d="M111,96.6l5.6,9.7l5.1,8.8l4,6.9l2.7,4.6l2.5,4.3l1.9,3.3l1,1.8l1.5,2.6l1.1,2l0.2,0.3l-0.8,1.3l-1.2,2.1l-0.7,1.3
			l-1.5,2.6l-1.9,3.3l-2,3.4l-3.2,5.6l-3.7,6.5l-4.2,7.3c-14-7.4-22.9-21.7-23.2-37.5C93.8,121.5,99.9,107,111,96.6 M111.3,95.1
			h-0.2c-11.4,10.2-18.4,25.1-18,41.6c0.4,17.1,10.3,31.7,24.6,38.8l4.7-8.1l3.7-6.5l3.2-5.6l2-3.4l1.9-3.3l1.5-2.6l0.7-1.3l1.2-2.1
			l0.8-1.4l0.2-0.3c0-0.1-0.1-0.3-0.1-0.5l-0.3-0.5l-1.1-2l-1.5-2.6l-1-1.8l-1.9-3.3l-2.5-4.3l-2.7-4.6l-4-6.9l-5.1-8.8L111.3,95.1
			L111.3,95.1z"/>
	</g>
	<path d="M196.2,46.1h-52.8l-25.2,43.6l-1.2,2.1l5.7,9.9c6.3-4.1,13.7-6.5,21.8-6.7c25.7-0.6,47.3,17.9,51.4,42.5h0.3l26.4-45.7
		L196.2,46.1z"/>
	<g>
		<path d="M145.6,96.1c11.9,0,23.4,4.2,32.4,12c8.7,7.4,14.5,17.5,16.7,28.6H184h-10.5h-8.3h-5h-4.7h-4.3h-1.9H147h-2.7H144
			l-0.2-0.3l-0.9-1.6l-0.9-1.5l-1.2-2l-1.3-2.2l-1.7-3l-2.4-4.2l-2.8-4.8l-3.9-6.8l-4.6-8c6.1-3.8,13.2-5.9,20.4-6
			C144.8,96.1,145.2,96.1,145.6,96.1 M145.6,95.1c-0.4,0-0.8,0-1.1,0c-8,0.2-15.5,2.6-21.8,6.7l5.1,8.9l3.9,6.8l2.8,4.8l2.4,4.2
			l1.7,3l1.3,2.2l1.2,2l0.9,1.5l0.9,1.6l0.5,0.8h0.9h2.7h2.3h1.9h4.3h4.7h5h8.3H184h11.9C191.8,113.4,170.7,95.1,145.6,95.1
			L145.6,95.1z"/>
	</g>
	<path d="M184.9,144.1c0.7,12.1-3.5,24.4-12.8,33.7c-14.8,14.8-36,19.1-54.6,13l25.9,44.8h52.8l26.4-45.7l-26.1-45.2
		c0,0.1,0,0.2,0,0.3c0-0.1,0-0.2,0-0.3l-0.3-0.6H184.9z"/>
	<g>
		<path d="M183.9,145.1c0.5,11.9-4.1,23.5-12.5,32c-9.9,9.9-23.1,15.4-37.2,15.4c-5.5,0-10.9-0.8-16-2.5l-0.1-0.1l6.5-11.3l4.7-8.2
			l3.7-6.3l3.3-5.7l2.1-3.7l1.7-3l1.6-2.7l1.2-2l0.8-1.5l0.2-0.4h0.3h0.8h2.5h2.5h1.8h4.2h5h4.8h8.3H183.9 M184.9,144.1h-10.7h-8.3
			h-4.8h-5h-4.2h-1.8h-2.5H145h-0.8h-0.9l-0.5,0.9l-0.8,1.5l-1.2,2l-1.6,2.7l-1.7,3l-2.1,3.7l-3.3,5.7l-3.7,6.3l-4.7,8.2l-6.8,11.8
			l0.5,0.9c5.4,1.8,11.1,2.7,16.7,2.7c13.7,0,27.4-5.2,37.9-15.7C181.3,168.5,185.6,156.2,184.9,144.1L184.9,144.1z"/>
	</g>
	<g>
		<path d="M470.6,236.2v-22.8h11.1c4,0,6.6,2.4,6.6,6c0,2.1-0.9,3.8-2.4,4.9c2.1,1,3.4,3.1,3.4,5.6c0,3.7-2.7,6.3-6.7,6.3H470.6z
			 M482.6,234c2.8,0,4.4-1.5,4.4-4.1c0-2.6-1.7-4.3-4.3-4.3h-9.8v8.4H482.6z M481.9,223.4c2.6,0,4.1-1.5,4.1-4
			c0-2.5-1.6-3.9-4.3-3.9h-8.8v7.9H481.9z"/>
		<path d="M501.8,236.2c-6.8,0-11.7-4.8-11.7-11.4c0-6.6,4.9-11.4,11.7-11.4c5.2,0,9.4,2.8,11,7.3l0.3,0.9h-2.4l-0.2-0.4
			c-1.4-3.5-4.7-5.7-8.8-5.7c-5.5,0-9.4,3.9-9.4,9.3c0,5.4,4,9.3,9.4,9.3c4.1,0,7.4-2.2,8.8-5.7l0.2-0.4h2.4l-0.3,0.9
			C511.2,233.4,506.9,236.2,501.8,236.2z"/>
		<path d="M531.5,236.2v-13.6c0-4.5-2.6-7.1-7.2-7.1c-4.6,0-7.2,2.6-7.2,7.1v13.6h-2.3v-13.6c0-5.8,3.5-9.3,9.5-9.3s9.5,3.5,9.5,9.3
			v13.6H531.5z"/>
	</g>
</g>
</svg>
