<?xml version="1.0" encoding="utf-8"?>
<!-- Generator: Adobe Illustrator 24.2.3, SVG Export Plug-In . SVG Version: 6.00 Build 0)  -->
<svg version="1.1" id="Layer_1" xmlns="http://www.w3.org/2000/svg" xmlns:xlink="http://www.w3.org/1999/xlink" x="0px" y="0px"
	 viewBox="0 0 566.9 566.9" style="enable-background:new 0 0 566.9 566.9;" xml:space="preserve">
<style type="text/css">
	.st0{fill:#FFFFFF;}
</style>
<path class="st0" d="M233.6,176.9c0-13.3,7.7-19.2,17.7-19.2c6.3,0,11.5,2.7,14.6,7.6c3-5,8.2-7.6,14.6-7.6c10,0,17.7,6,17.7,19.2
	V201h-10.2v-24.1c0-6.9-3.6-9.7-8.5-9.7c-4.9,0-8.5,2.9-8.5,9.7V201h-10.2v-24.1c0-6.8-3.7-9.7-8.5-9.7c-5,0-8.5,2.8-8.5,9.7V201
	h-10.2V176.9z"/>
<path class="st0" d="M302.8,179.7c0-13.1,9.4-22.1,22.8-22.1c13.3,0,22.5,8.8,22.5,22V201h-9.3v-8.1c-2.6,6.1-8.3,8-15,8
	C313.5,201,302.8,193.8,302.8,179.7z M337.9,179.3c0-7.3-5-12.4-12.4-12.4c-7.4,0-12.5,5.2-12.5,12.4c0,7.3,5,12.4,12.5,12.4
	C332.9,191.7,337.9,186.6,337.9,179.3z"/>
<path class="st0" d="M355.8,140.3h10.2v36.9l16.8-18.5h13l-19.8,20.7l20.6,21.5h-13.3l-17.3-19.1V201h-10.2V140.3z"/>
<path class="st0" d="M395.6,179.3c0-12.5,9.4-21.7,22.7-21.7c13.3,0,22.6,9.2,22.6,21.7v3.5h-34.6c1.4,6,6.1,9.2,12.1,9.2
	c4.5,0,7.9-1.3,10-3.9h10.9c-3.2,7.8-10.9,12.9-20.9,12.9C405,201,395.6,191.8,395.6,179.3z M430.1,174.9c-1.6-5.5-6.2-8.3-11.8-8.3
	c-5.7,0-10.2,2.8-11.8,8.3H430.1z"/>
<path class="st0" d="M445.4,176.4c0-12.7,7.5-18.8,18.6-18.8c11,0,18.5,6.1,18.5,19v0.3h-10.1v-0.4c0-6.8-3.4-9.3-8.4-9.3
	s-8.4,2.5-8.4,9.3V201h-10.2V176.4z"/>
<path class="st0" d="M483.8,187.7h10.3c0.1,2.8,2.6,4.6,7.5,4.6c5.2,0,7.4-2.1,7.4-4.6c0-3.2-3.8-3.6-8.3-4.2
	c-6.5-0.8-16.1-1.9-16.1-12c0-8.4,6.6-13.9,16.8-13.9c10.3,0,16.7,5.7,16.9,12.9h-10.1c-0.3-2.5-2.7-4.3-6.7-4.3
	c-4.4,0-6.7,2.1-6.7,4.5c0,3.2,3.8,3.7,8.4,4.3c5.6,0.8,16,1.8,16,12.1c0,8.3-6.9,13.8-17.7,13.8S484.1,195.4,483.8,187.7z"/>
<polygon class="st0" points="233.6,283.7 233.6,279.9 287.7,213.2 233.7,213.2 233.7,208.3 294.7,208.3 294.7,212.2 240.6,278.8 
	294.9,278.8 294.9,283.7 "/>
<path class="st0" d="M329.8,283.7c-21.1,0-36.4-15.9-36.4-37.8s15.3-37.8,36.4-37.8s36.4,15.9,36.4,37.8S350.9,283.7,329.8,283.7z
	 M329.8,212.8c-18.5,0-31.5,13.6-31.5,33.1s12.9,33.1,31.5,33.1s31.5-13.6,31.5-33.1S348.4,212.8,329.8,212.8z"/>
<path class="st0" d="M435.8,283.7v-38.6c0-20.2-10.7-32.2-28.7-32.2s-28.6,12-28.6,32.2v38.6h-4.8v-38.6c0-23.2,12.5-37,33.4-37
	c20.9,0,33.4,13.8,33.4,37v38.6H435.8z"/>
<path class="st0" d="M484.4,283.7c-21.1,0-36.4-15.9-36.4-37.8s15.3-37.8,36.4-37.8c21,0,36.3,15.9,36.3,37.8v0.9h-67.7
	c0.4,19,13.3,32.2,31.5,32.2c12.8,0,23.4-6.7,28.4-17.9l0.2-0.4h5.1l-0.3,0.8C512.4,275.5,499.9,283.7,484.4,283.7z M515.7,242.2
	c-1.6-17.6-14.1-29.4-31.3-29.4c-17.2,0-29.8,11.8-31.4,29.4H515.7z"/>
<g>
	<path class="st0" d="M461.1,310.8v-21.5h10.5c3.8,0,6.2,2.2,6.2,5.7c0,1.9-0.9,3.6-2.3,4.6c2,1,3.2,2.9,3.2,5.3
		c0,3.5-2.5,5.9-6.3,5.9H461.1z M472.3,308.7c2.7,0,4.2-1.4,4.2-3.9c0-2.4-1.6-4-4-4h-9.3v7.9H472.3z M471.7,298.8
		c2.4,0,3.9-1.4,3.9-3.8c0-2.3-1.5-3.7-4.1-3.7h-8.3v7.4H471.7z"/>
	<path class="st0" d="M490.4,310.8c-6.4,0-11-4.5-11-10.8s4.6-10.8,11-10.8c4.9,0,8.9,2.7,10.4,6.9l0.3,0.9h-2.3l-0.2-0.4
		c-1.3-3.3-4.5-5.3-8.3-5.3c-5.2,0-8.9,3.7-8.9,8.7c0,5.1,3.7,8.7,8.9,8.7c3.8,0,7-2,8.3-5.3l0.2-0.4h2.3l-0.3,0.9
		C499.3,308.2,495.3,310.8,490.4,310.8z"/>
	<path class="st0" d="M518.4,310.8V298c0-4.3-2.5-6.7-6.8-6.7c-4.3,0-6.8,2.4-6.8,6.7v12.8h-2.1V298c0-5.5,3.3-8.8,8.9-8.8
		c5.6,0,8.9,3.3,8.9,8.8v12.8H518.4z"/>
</g>
<g>
	<path class="st0" d="M227.4,174.1L202.6,131h-0.1l0,0h-49.8l-23.7,41.1l-1.2,2l25.1,43.1h49.3c0,0,0,0,0,0h0.3l0,0h0.1L227.4,174.1
		z M154.3,214.6L135.5,182c5.4-3,11.5-4.7,18.1-4.9c23.3-0.5,43,15.6,47.9,37.4H154.3z"/>
	<path class="st0" d="M72.8,177.3l-24.9,43.1l0.1,0.1l0,0l24.9,43.1l47.5,0l2.3,0l24.8-43.3l-24.6-42.7c0,0,0,0,0,0l-0.2-0.3l0,0
		l-0.1-0.1L72.8,177.3z M144.4,220.4L125.6,253c-5.3-3.2-9.9-7.6-13.3-13.3c-12.1-19.9-8-45.1,8.5-60.2L144.4,220.4z"/>
	<path class="st0" d="M152.5,309.6l49.8,0l0.1-0.1h0l24.9-43.1l-23.7-41.1l-1.2-2l-49.9,0.1l-24.7,42.7c0,0,0,0,0,0l-0.2,0.3l0,0
		l-0.1,0.1L152.5,309.6z M154,226l37.6,0c-0.1,6.2-1.7,12.4-4.9,18.1c-11.2,20.4-35,29.4-56.4,22.8L154,226z"/>
</g>
</svg>
