<svg id="Layer_1" data-name="Layer 1" xmlns="http://www.w3.org/2000/svg" viewBox="0 0 444.93 442.42"><defs><style>.cls-1{fill:none;stroke:#1d1d1b;stroke-linejoin:round;stroke-width:3px;}</style></defs><path class="cls-1" d="M203.22,272.66A125.69,125.69,0,0,1,245,176.23H122.92L61.67,282.32l61.25,106.1H245.43l14.85-25.72A103.09,103.09,0,0,1,203.22,272.66Z" transform="translate(-60.17 -61.06)"/><path class="cls-1" d="M306.29,281.64l-.67-1.16L303,275.87l-3.49-6-2.43-4.2-4.35-7.54-5.75-10-6.17-10.69-9.3-16.1-11.81-20.46-14.24-24.65H245a125.69,125.69,0,0,0-41.76,96.43,103.09,103.09,0,0,0,57.06,90L271.11,344l8.67-15,7.54-13.05,4.57-7.93,4.37-7.56,3.47-6,1.73-3,2.77-4.8,1.86-3.22.38-.66A7.47,7.47,0,0,1,306.29,281.64Z" transform="translate(-60.17 -61.06)"/><path class="cls-1" d="M442.29,62.56H319.78L261.39,163.68l-2.87,5,13.24,22.94a96.29,96.29,0,0,1,50.49-15.51,118.31,118.31,0,0,1,119.23,98.67h.81l61.25-106.1Z" transform="translate(-60.17 -61.06)"/><path class="cls-1" d="M322.25,176.08a96.29,96.29,0,0,0-50.49,15.51l11.88,20.56,9.06,15.71L299.12,239l5.63,9.74,4.05,7,3,5.21,2.7,4.69,2,3.44,2.18,3.77,1.1,1.9h121.7A118.31,118.31,0,0,0,322.25,176.08Z" transform="translate(-60.17 -61.06)"/><path class="cls-1" d="M442.34,502l61.26-106.1L445.21,294.75l-2.87-5H415.86a96.47,96.47,0,0,1-11.81,51.48A118.31,118.31,0,0,1,259,395.18l-.4.7L319.83,502Z" transform="translate(-60.17 -61.06)"/><path class="cls-1" d="M404.05,341.26a96.47,96.47,0,0,0,11.81-51.48h-96l-1.06,1.84-3.16,5.47-2.65,4.6-2.22,3.85-4.95,8.57-5.5,9.52-5.75,9.95L284.9,350.3l-12.15,21L259,395.18A118.31,118.31,0,0,0,404.05,341.26Z" transform="translate(-60.17 -61.06)"/></svg>