<svg id="Layer_1" data-name="Layer 1" xmlns="http://www.w3.org/2000/svg" viewBox="0 0 481.23 479.61"><defs><style>.cls-1{fill:#6ec6d9;}.cls-2{fill:#57b037;}.cls-3{fill:#fff;}</style></defs><path class="cls-1" d="M189.93,282.54a136.94,136.94,0,0,1,45.48-105H102.48L35.77,293.06l66.71,115.55H235.91l16.17-28A112.28,112.28,0,0,1,189.93,282.54Z" transform="translate(-35.77 -53.72)"/><path class="cls-2" d="M252.08,381.34a.83.83,0,0,1-.34-.07,112.9,112.9,0,0,1-62.56-98.71A137.94,137.94,0,0,1,234.91,177a.72.72,0,0,1,.5-.2h.5a.78.78,0,0,1,.65.38l66.27,114.8a.63.63,0,0,1,.1.3,6.86,6.86,0,0,0,.17,1.06.73.73,0,0,1-.08.56L252.73,381A.75.75,0,0,1,252.08,381.34Z" transform="translate(-35.77 -53.72)"/><path class="cls-3" d="M235.91,177.51l15.5,26.86,12.86,22.28,10.13,17.53,6.71,11.64,6.27,10.85,4.74,8.2,2.64,4.59,3.8,6.58,2.89,5,.73,1.26a7.32,7.32,0,0,0,.19,1.17l-.41.72-2,3.5-3,5.23L295,306.18l-3.78,6.55L286.5,321l-5,8.63-8.21,14.22-9.44,16.35-11.79,20.42a112.28,112.28,0,0,1-62.15-98,136.94,136.94,0,0,1,45.48-105h.5m0-1.5h-.5a1.48,1.48,0,0,0-1,.39,138.66,138.66,0,0,0-46,106.17,113.62,113.62,0,0,0,63,99.37,1.56,1.56,0,0,0,.67.15,1.5,1.5,0,0,0,1.3-.75l11.79-20.42,9.44-16.35,8.21-14.22,5-8.63,4.76-8.24,3.78-6.55,1.87-3.25,3-5.23,2-3.5.41-.72a1.46,1.46,0,0,0,.15-1.12,7.77,7.77,0,0,1-.14-.95,1.47,1.47,0,0,0-.2-.6l-.73-1.26-2.89-5-3.8-6.58-2.64-4.59-4.74-8.2-6.27-10.85-6.71-11.64L265.57,225.9l-12.86-22.28L237.2,176.76a1.49,1.49,0,0,0-1.29-.75Z" transform="translate(-35.77 -53.72)"/><path class="cls-1" d="M450.29,53.72H316.87L253.28,163.85l-3.12,5.42,14.42,25a105,105,0,0,1,55-16.9A128.85,128.85,0,0,1,449.41,284.81h.88L517,169.27Z" transform="translate(-35.77 -53.72)"/><path class="cls-2" d="M316.87,285.56a.74.74,0,0,1-.65-.37l-52.29-90.56a.76.76,0,0,1,.24-1,106,106,0,0,1,55.38-17c1,0,1.91,0,2.87,0A129.61,129.61,0,0,1,450.15,284.69a.79.79,0,0,1-.17.61.73.73,0,0,1-.57.26Z" transform="translate(-35.77 -53.72)"/><path class="cls-3" d="M322.42,177.32a128.87,128.87,0,0,1,127,107.49H316.87l-1.2-2.06-2.37-4.11-2.16-3.75-2.95-5.11-3.27-5.67-4.42-7.65-6.12-10.6-7-12.11-9.87-17.11-12.93-22.39a105,105,0,0,1,55-16.9l2.85,0m0-1.5-2.89,0A106.75,106.75,0,0,0,263.76,193a1.5,1.5,0,0,0-.48,2l12.93,22.39,9.88,17.11,7,12.11,6.12,10.6,4.42,7.65,3.27,5.67,2.95,5.11,2.16,3.75,2.37,4.11,1.2,2.06a1.49,1.49,0,0,0,1.3.75H449.41a1.5,1.5,0,0,0,1.48-1.74A130.36,130.36,0,0,0,322.42,175.82Z" transform="translate(-35.77 -53.72)"/><path class="cls-1" d="M449.92,533.33l66.71-115.54L453,307.65l-3.12-5.41H421.07a104.86,104.86,0,0,1-12.86,56.07,128.83,128.83,0,0,1-158,58.71l-.44.77L316.5,533.33Z" transform="translate(-35.77 -53.72)"/><path class="cls-2" d="M295.18,425.91A128.35,128.35,0,0,1,250,417.72a.76.76,0,0,1-.44-.44.77.77,0,0,1,.06-.63l66.27-114.79a.74.74,0,0,1,.65-.37H421.07a.75.75,0,0,1,.75.71,105.93,105.93,0,0,1-12.95,56.47,129.62,129.62,0,0,1-113.69,67.24Z" transform="translate(-35.77 -53.72)"/><path class="cls-3" d="M318.88,302.24H421.07a104.86,104.86,0,0,1-12.86,56.07,128.79,128.79,0,0,1-158,58.71l15-26,13.23-22.92L289,349.94l6.25-10.84,6-10.37,5.39-9.33,2.42-4.19,2.89-5,3.44-6,1.16-2h2.38m0-1.5H316.5a1.51,1.51,0,0,0-1.3.75l-1.16,2-3.44,6-2.89,5-2.42,4.19L299.9,328l-6,10.37-6.25,10.84-10.51,18.2-13.23,22.92-15,26a1.49,1.49,0,0,0,.77,2.16A130.32,130.32,0,0,0,409.53,359a106.62,106.62,0,0,0,13-56.87,1.5,1.5,0,0,0-1.5-1.42H318.88Z" transform="translate(-35.77 -53.72)"/></svg>