<svg id="Layer_1" data-name="Layer 1" xmlns="http://www.w3.org/2000/svg" viewBox="0 0 523.25 198.19"><defs><style>.cls-1{fill:#57b037;}.cls-2{fill:#6ec6d9;}.cls-3{fill:#fff;}</style></defs><path class="cls-1" d="M225,83.93c0-14.66,8.51-21.27,19.57-21.27,7,0,12.77,2.93,16.17,8.41,3.31-5.48,9.08-8.41,16.17-8.41,11.06,0,19.57,6.61,19.57,21.27v26.66H285.26V83.93c0-7.66-4-10.78-9.45-10.78s-9.36,3.22-9.36,10.78v26.66H255.19V83.93c0-7.56-4.06-10.78-9.45-10.78s-9.46,3.12-9.46,10.78v26.66H225Z" transform="translate(-19.25 -33.89)"/><path class="cls-1" d="M301.52,87.09c0-14.48,10.4-24.43,25.25-24.43,14.65,0,24.86,9.68,24.86,24.33v23.67h-10.3v-9c-2.84,6.73-9.17,8.88-16.55,8.88C313.43,110.59,301.52,102.67,301.52,87.09Zm38.86-.46c0-8-5.48-13.74-13.71-13.74s-13.8,5.71-13.8,13.74,5.58,13.73,13.8,13.73S340.38,94.65,340.38,86.63Z" transform="translate(-19.25 -33.89)"/><path class="cls-1" d="M360.14,43.46h11.25V84.31l18.53-20.43H404.3L382.36,86.77l22.79,23.82H390.49l-19.1-21.08v21.08H360.14Z" transform="translate(-19.25 -33.89)"/><path class="cls-1" d="M404.2,86.66c0-13.85,10.4-24,25.15-24s25,10.15,25,24v3.87H416c1.51,6.65,6.71,10.16,13.33,10.16,5,0,8.7-1.39,11.06-4.34h12c-3.5,8.67-12,14.31-23.07,14.31C414.6,110.66,404.2,100.5,404.2,86.66Zm38.2-4.9c-1.8-6.09-6.91-9.13-13-9.13-6.34,0-11.25,3.13-13.05,9.13Z" transform="translate(-19.25 -33.89)"/><path class="cls-1" d="M459.32,83.46c0-14.09,8.32-20.8,20.52-20.8s20.42,6.71,20.42,21v.28H489.1v-.47c0-7.57-3.78-10.31-9.26-10.31s-9.27,2.74-9.27,10.31v27.13H459.32Z" transform="translate(-19.25 -33.89)"/><path class="cls-1" d="M501.77,95.94h11.35c.09,3,2.83,5.07,8.32,5.07,5.77,0,8.22-2.31,8.22-5.07,0-3.51-4.16-4-9.17-4.61-7.18-.92-17.77-2.12-17.77-13.28,0-9.31,7.28-15.39,18.53-15.39,11.44,0,18.44,6.26,18.72,14.29H528.81c-.28-2.77-2.93-4.71-7.37-4.71-4.92,0-7.38,2.31-7.38,5,0,3.51,4.26,4.06,9.27,4.7,6.24.83,17.68,2,17.68,13.37,0,9.22-7.66,15.3-19.57,15.3S502.05,104.42,501.77,95.94Z" transform="translate(-19.25 -33.89)"/><polygon class="cls-2" points="205.78 168.25 205.78 163.96 265.64 90.27 205.87 90.27 205.87 84.86 273.36 84.86 273.36 89.15 213.5 162.84 273.62 162.84 273.62 168.25 205.78 168.25"/><path class="cls-2" d="M331.46,202.14c-23.32,0-40.25-17.59-40.25-41.81s16.93-41.81,40.25-41.81,40.26,17.58,40.26,41.81S354.79,202.14,331.46,202.14Zm0-78.46c-20.49,0-34.81,15.07-34.81,36.65S311,197,331.46,197s34.81-15.07,34.81-36.65S352,123.68,331.46,123.68Z" transform="translate(-19.25 -33.89)"/><path class="cls-2" d="M448.61,202.14v-42.7c0-22.31-11.84-35.63-31.68-35.63s-31.69,13.32-31.69,35.63v42.7h-5.3v-42.7c0-25.63,13.83-40.92,37-40.92s37,15.29,37,40.92v42.7Z" transform="translate(-19.25 -33.89)"/><path class="cls-2" d="M502.39,202.14c-23.32,0-40.25-17.59-40.25-41.81s16.93-41.81,40.25-41.81,40.11,17.58,40.11,41.81v1H467.59c.45,21,14.68,35.65,34.8,35.65,14.16,0,25.91-7.42,31.45-19.83l.18-.42h5.67l-.36.92C533.38,193,519.57,202.14,502.39,202.14Zm34.6-46c-1.79-19.47-15.61-32.49-34.6-32.49s-33,13-34.75,32.49Z" transform="translate(-19.25 -33.89)"/><path class="cls-1" d="M476.58,232.08V208.29H488.2c4.15,0,6.84,2.47,6.84,6.29a6.08,6.08,0,0,1-2.54,5.1,6.29,6.29,0,0,1,3.56,5.87c0,3.91-2.8,6.53-7,6.53Zm12.47-2.29c2.94,0,4.62-1.55,4.62-4.27a4.17,4.17,0,0,0-4.44-4.45H479v8.72Zm-.71-11c2.66,0,4.31-1.6,4.31-4.17s-1.64-4-4.48-4H479v8.21Z" transform="translate(-19.25 -33.89)"/><path class="cls-1" d="M509.08,232.08c-7.07,0-12.2-5-12.2-11.93s5.13-11.93,12.2-11.93c5.39,0,9.79,2.94,11.49,7.67l.34,1h-2.49l-.18-.45a9.67,9.67,0,1,0,0,7.53l.18-.46h2.49l-.34,1C518.87,229.14,514.47,232.08,509.08,232.08Z" transform="translate(-19.25 -33.89)"/><path class="cls-1" d="M540,232.08V217.91c0-4.71-2.72-7.42-7.48-7.42s-7.49,2.71-7.49,7.42v14.17h-2.38V217.91c0-6.06,3.69-9.69,9.87-9.69s9.86,3.63,9.86,9.69v14.17Z" transform="translate(-19.25 -33.89)"/><path class="cls-2" d="M82.9,128.37A56.54,56.54,0,0,1,101.68,85H46.79L19.25,132.71l27.54,47.71h55.09l6.68-11.57A46.36,46.36,0,0,1,82.9,128.37Z" transform="translate(-19.25 -33.89)"/><path class="cls-1" d="M108.56,169.6a.71.71,0,0,1-.34-.08,47,47,0,0,1-26.07-41.14,57.4,57.4,0,0,1,19-43.94.74.74,0,0,1,.5-.19h.2a.73.73,0,0,1,.65.38L129.9,132a.75.75,0,0,1,.09.3c0,.12,0,.25.06.37a.78.78,0,0,1-.07.56l-20.77,36A.75.75,0,0,1,108.56,169.6Z" transform="translate(-19.25 -33.89)"/><path class="cls-3" d="M101.88,85l6.4,11.09,5.32,9.2,4.17,7.24,2.78,4.8,2.58,4.48,2,3.39,1.09,1.89,1.57,2.72,1.2,2.07.3.52a3.85,3.85,0,0,0,.08.49l-.17.29-.84,1.45-1.25,2.16-.77,1.34-1.56,2.7-2,3.41-2,3.56-3.39,5.87-3.9,6.75-4.87,8.43A46.36,46.36,0,0,1,82.9,128.37,56.54,56.54,0,0,1,101.68,85h.2m0-1.5h-.2a1.52,1.52,0,0,0-1,.39A58.15,58.15,0,0,0,81.4,128.4a47.82,47.82,0,0,0,26.49,41.8,1.56,1.56,0,0,0,.67.15,1.5,1.5,0,0,0,1.3-.75l4.87-8.43,3.9-6.75,3.39-5.87,2-3.56,2-3.41,1.56-2.7.77-1.34,1.25-2.16.83-1.45.18-.29a1.53,1.53,0,0,0,.15-1.13,1.78,1.78,0,0,1,0-.26,1.62,1.62,0,0,0-.19-.6l-.3-.52-1.2-2.07-1.57-2.72-1.09-1.89-2-3.39-2.58-4.48-2.78-4.8-4.18-7.24-5.31-9.2-6.4-11.09a1.51,1.51,0,0,0-1.3-.75Z" transform="translate(-19.25 -33.89)"/><path class="cls-2" d="M190.4,33.89H135.31L109.06,79.36l-1.29,2.24,6,10.31a43.27,43.27,0,0,1,22.71-7A53.19,53.19,0,0,1,190,129.31h.36L218,81.6Z" transform="translate(-19.25 -33.89)"/><path class="cls-1" d="M135.31,130.06a.76.76,0,0,1-.65-.38L113.07,92.29a.76.76,0,0,1,.24-1,44.15,44.15,0,0,1,23.1-7.09l1.19,0a53.73,53.73,0,0,1,53.18,45,.79.79,0,0,1-.17.61.74.74,0,0,1-.57.27Z" transform="translate(-19.25 -33.89)"/><path class="cls-3" d="M137.6,84.92A53.21,53.21,0,0,1,190,129.31H135.31l-.49-.86-1-1.7-.89-1.54-1.22-2.11-1.35-2.34-1.83-3.16L126,113.22l-2.88-5-4.08-7.06-5.34-9.25a43.27,43.27,0,0,1,22.71-7l1.17,0m0-1.5-1.21,0a44.86,44.86,0,0,0-23.48,7.21,1.5,1.5,0,0,0-.49,2l5.34,9.25,4.08,7.06,2.89,5,2.52,4.38,1.83,3.16,1.35,2.34,1.22,2.11.89,1.54,1,1.7.49.86a1.52,1.52,0,0,0,1.3.75H190a1.51,1.51,0,0,0,1.48-1.75A54.7,54.7,0,0,0,137.6,83.42Z" transform="translate(-19.25 -33.89)"/><path class="cls-2" d="M190.25,231.92l27.54-47.71-26.25-45.47-1.29-2.24H178.34A43.37,43.37,0,0,1,173,159.65a53.19,53.19,0,0,1-65.23,24.24l-.19.32,27.55,47.71Z" transform="translate(-19.25 -33.89)"/><path class="cls-1" d="M126.35,188a53.52,53.52,0,0,1-18.82-3.41.75.75,0,0,1-.44-.45.77.77,0,0,1,.06-.63l27.36-47.39a.73.73,0,0,1,.65-.38h43.18a.75.75,0,0,1,.75.71,44.29,44.29,0,0,1-5.4,23.55,54,54,0,0,1-47.33,28Z" transform="translate(-19.25 -33.89)"/><path class="cls-3" d="M136.14,136.5h42.2A43.37,43.37,0,0,1,173,159.65a53.14,53.14,0,0,1-65.23,24.24L114,173.17l5.46-9.46,4.34-7.51,2.58-4.48,2.47-4.28,2.23-3.86,1-1.72,1.19-2.07,1.42-2.46.48-.83h1m0-1.5h-1a1.51,1.51,0,0,0-1.3.75l-.48.83L132,139l-1.19,2.07-1,1.72-2.23,3.86L125.07,151l-2.58,4.48L118.15,163l-5.46,9.46-6.19,10.72a1.49,1.49,0,0,0,.77,2.16,54.66,54.66,0,0,0,67.07-24.93,44.9,44.9,0,0,0,5.5-24,1.51,1.51,0,0,0-1.5-1.42h-42.2Z" transform="translate(-19.25 -33.89)"/></svg>